<svg width="175" height="31" viewBox="0 0 175 31" fill="none" xmlns="http://www.w3.org/2000/svg">
<path d="M0 30.5892V0.336163H7.899C10.125 0.336163 11.998 0.585334 13.5179 1.08315C15.0651 1.55642 16.2325 2.37809 17.0195 3.5482C17.8338 4.7183 18.241 6.31205 18.241 8.32892C18.241 9.54918 18.1188 10.6446 17.8745 11.6157C17.6302 12.5868 17.2097 13.4207 16.6123 14.1181C16.0423 14.7904 15.2413 15.3133 14.21 15.6868L18.811 30.5892H12.785L8.79476 16.7325H6.02604V30.5892H0ZM6.02604 13.259H7.899C9.06622 13.259 9.98891 13.1096 10.6677 12.8108C11.3733 12.487 11.8758 11.9892 12.1742 11.3169C12.4726 10.6195 12.6221 9.73592 12.6221 8.66506C12.6221 7.14601 12.3098 6.01327 11.6856 5.26628C11.0883 4.49422 9.93482 4.10844 8.22473 4.10844H6.02604V13.259ZM22.8233 30.5892V0.336163H36.6669V4.22048H28.8494V12.9229H34.9976V16.7699H28.8494V26.7795H36.7484V30.5892H22.8233ZM40.1581 30.5892L40.7281 0.336163H46.9577L51.6401 21.2892L56.5261 0.336163H62.5521L63.1629 30.5892H58.6841L58.1955 9.56144L53.5131 30.5892H49.8893L45.1255 9.48674L44.6776 30.5892H40.1581ZM76.9908 31C74.6566 31 72.797 30.6014 71.4126 29.8048C70.0283 29.0082 69.0377 27.8627 68.4403 26.3687C67.843 24.8747 67.5446 23.107 67.5446 21.0651V9.74821C67.5446 7.70626 67.843 5.96363 68.4403 4.51928C69.0377 3.05038 70.0283 1.92991 71.4126 1.15785C72.797 0.385781 74.6566 0 76.9908 0C79.3797 0 81.2526 0.385781 82.6096 1.15785C83.994 1.92991 84.9846 3.05038 85.582 4.51928C86.2061 5.96363 86.5184 7.70626 86.5184 9.74821V21.1024C86.5184 23.1193 86.2061 24.8747 85.582 26.3687C84.9846 27.8376 83.994 28.9831 82.6096 29.8048C81.2526 30.6014 79.3797 31 76.9908 31ZM76.9908 26.9289C77.9953 26.9289 78.7282 26.7299 79.1895 26.3313C79.6781 25.9328 80.0038 25.3853 80.1667 24.688C80.3295 23.9906 80.411 23.2313 80.411 22.4096V8.47832C80.411 7.63155 80.3295 6.8723 80.1667 6.20001C80.0038 5.52772 79.6781 5.00482 79.1895 4.63132C78.7282 4.23275 77.9953 4.03374 76.9908 4.03374C76.0409 4.03374 75.3214 4.23275 74.8328 4.63132C74.3442 5.00482 74.0185 5.52772 73.8556 6.20001C73.6927 6.8723 73.6113 7.63155 73.6113 8.47832V22.4096C73.6113 23.2313 73.6794 23.9906 73.8149 24.688C73.9778 25.3853 74.3035 25.9328 74.7921 26.3313C75.2807 26.7299 76.0136 26.9289 76.9908 26.9289ZM90.9757 30.5892V0.336163H95.1695L103.191 17.5916V0.336163H108.158V30.5892H104.168L96.106 12.5121V30.5892H90.9757ZM116.461 30.5892V4.40723H111.209V0.336163H127.658V4.40723H122.487V30.5892H116.461ZM130.089 30.5892V25.4723H135.463V30.5892H130.089ZM139.486 30.5892V0.336163H145.512V13.6325L152.027 0.336163H157.768L151.457 13.8566L158.419 30.5892H152.434L146.896 16.8072L145.512 19.1229V30.5892H139.486ZM160.016 30.5892V27.041L168.893 4.14578H160.505V0.336163H174.959V3.1747L165.757 26.7795H175V30.5892H160.016Z" fill="white"/>
</svg>
