<svg width="39" height="42" viewBox="0 0 39 42" fill="none" xmlns="http://www.w3.org/2000/svg">
<path fill-rule="evenodd" clip-rule="evenodd" d="M3.82885 12.7265L10.1812 6.36898V2.25931C10.1812 1.83771 10.0139 1.43338 9.71606 1.13528C9.41821 0.837161 9.01434 0.669678 8.59311 0.669678H5.41694C4.99571 0.669678 4.59184 0.837161 4.29398 1.13528C3.99613 1.43338 3.82885 1.83771 3.82885 2.25931V12.7265ZM19.7097 4.78046L0.652679 23.8561V37.2311C0.652679 38.4959 1.15466 39.709 2.04808 40.6032C2.9415 41.4975 4.15338 42 5.41694 42H6.66298C6.54991 41.8002 6.48907 41.5728 6.48893 41.3391V40.6682H10.5105L10.511 40.6687V41.3396C10.511 41.5731 10.4501 41.8003 10.3373 42H17.8411L18.1607 32.6852C18.16 32.5209 18.1918 32.3578 18.2542 32.2058C18.3164 32.0536 18.4082 31.9154 18.5241 31.7988C18.64 31.6823 18.7776 31.5898 18.9294 31.5267C19.081 31.4635 19.2436 31.431 19.4078 31.4309L20.8479 31.4306C21.1777 31.4306 21.4942 31.5613 21.7279 31.794C21.9618 32.0269 22.094 32.343 22.0956 32.6731L22.4694 42H30.5493C30.5364 41.957 30.5294 41.9123 30.529 41.8666V33.0369C29.8771 32.6793 29.3408 32.1426 28.9834 31.4902C28.626 30.8377 28.4625 30.0966 28.5119 29.3541C28.5613 28.6115 28.8218 27.8987 29.2625 27.2995C29.7034 26.7003 30.306 26.2397 30.9995 25.9719L31.0121 29.3316H33.8166L33.8291 25.9719C34.5227 26.2397 35.1254 26.7003 35.5661 27.2995C36.0069 27.8987 36.2673 28.6115 36.3168 29.3541C36.3663 30.0966 36.2026 30.8377 35.8452 31.4902C35.4879 32.1426 34.9517 32.6793 34.2996 33.0369V41.8666C34.2993 41.9093 34.2931 41.9514 34.2817 41.9918C35.4435 41.9236 36.5438 41.4314 37.3713 40.6032C38.2648 39.709 38.7667 38.4959 38.7667 37.2311V23.8561L19.7097 4.78046ZM10.5105 34.6292V39.3265H6.48907V34.6292C6.48907 34.2734 6.63023 33.9322 6.88164 33.6805C7.13306 33.4289 7.47397 33.2876 7.82956 33.2874L7.82899 27.9189C7.65127 27.9189 7.48074 27.8482 7.35511 27.7223C7.22947 27.5966 7.15875 27.4259 7.15875 27.248V25.9062C7.15875 25.7283 7.22947 25.5576 7.35511 25.4318C7.48074 25.3059 7.65127 25.2353 7.82899 25.2353L9.17089 25.2357C9.34861 25.2359 9.51914 25.3065 9.64477 25.4323C9.77055 25.5582 9.84113 25.7287 9.84113 25.9066L9.84028 27.2484C9.84014 27.4264 9.76956 27.597 9.64393 27.7229C9.51815 27.8486 9.34777 27.9193 9.17004 27.9193V33.2874C9.52549 33.2876 9.8664 33.4289 10.1178 33.6805C10.3692 33.9322 10.5104 34.2734 10.5105 34.6292ZM32.4144 40.7833C32.2945 40.7803 32.1784 40.7421 32.0801 40.6736C31.9817 40.6052 31.9056 40.5094 31.8612 40.3981C31.8167 40.2867 31.806 40.1648 31.83 40.0474C31.8541 39.9298 31.9121 39.8221 31.9968 39.7374C32.0815 39.6526 32.1892 39.5945 32.3065 39.5703C32.4238 39.5462 32.5457 39.5571 32.6569 39.6016C32.7681 39.6461 32.8639 39.7222 32.9323 39.8206C33.0006 39.9191 33.0388 40.0354 33.0417 40.1553C33.0438 40.2383 33.029 40.3209 32.9982 40.3981C32.9675 40.4752 32.9213 40.5452 32.8626 40.604C32.804 40.6627 32.734 40.7089 32.6569 40.7397C32.5798 40.7705 32.4973 40.7854 32.4144 40.7833ZM15.0949 24.1829H15.0779C14.8624 24.1887 14.6573 24.2759 14.5036 24.4269C14.3499 24.578 14.2588 24.7817 14.2489 24.9971C14.2485 25.0075 14.2482 25.0183 14.2482 25.0287L14.2669 28.0733C14.2691 28.2954 14.3585 28.5077 14.5156 28.6645C14.5932 28.7432 14.6856 28.8058 14.7875 28.8486C14.8894 28.8913 14.9988 28.9135 15.1092 28.9138L16.9888 28.9234C17.0995 28.9239 17.2091 28.9026 17.3115 28.8605C17.414 28.8185 17.507 28.7565 17.5853 28.6784C17.6638 28.6001 17.7259 28.5071 17.7683 28.4048C17.8106 28.3025 17.8324 28.1927 17.8321 28.0819L17.8315 28.066L17.8291 27.9679C17.8294 27.9613 17.8312 27.9546 17.8342 27.9487C17.8373 27.9427 17.8416 27.9374 17.8468 27.9331C17.9946 27.9744 18.1261 28.0603 18.2237 28.179C18.2608 28.2252 18.3874 28.4021 18.469 28.7448C18.5234 28.9764 18.5708 29.7469 18.5995 30.2553C18.6082 30.4148 18.6778 30.5649 18.7938 30.6746C18.9099 30.7844 19.0635 30.8455 19.2231 30.8453H21.1205C21.2714 30.8455 21.4174 30.7909 21.5311 30.6917C21.6449 30.5925 21.719 30.4553 21.7395 30.3057C21.8514 29.5158 22.0285 28.9026 22.1387 28.8023C22.6882 28.3035 23.193 28.1089 23.7751 28.1722C24.1155 28.2122 24.7262 28.4619 25.1199 28.7959C25.3044 28.9519 25.4652 29.1342 25.5969 29.3368C25.6578 29.4366 25.7125 29.5399 25.7609 29.6461C25.816 29.7688 25.909 29.8705 26.0263 29.9359C26.1436 30.0015 26.2789 30.0273 26.4121 30.0097C26.5452 29.992 26.6692 29.9318 26.7653 29.838C26.8616 29.7443 26.9251 29.6218 26.9463 29.4891C26.9901 29.2118 27.009 28.9309 27.0025 28.6501C26.9819 28.1636 26.7127 27.1082 25.8425 26.2373C25.341 25.7345 24.746 25.3348 24.091 25.0608C22.3672 24.3349 20.8867 24.2168 20.1578 24.2113H20.1534C19.6593 24.2113 19.1659 24.2476 18.6772 24.3201C18.258 24.3902 18.0067 24.6791 17.8399 24.8709L17.8384 24.8726C17.8291 24.8836 17.8191 24.8969 17.8072 24.9087C17.7787 24.7318 17.6953 24.5684 17.5688 24.4415C17.4912 24.3628 17.3987 24.3003 17.2968 24.2576C17.1949 24.2148 17.0855 24.1928 16.975 24.1926L15.0949 24.1829Z" fill="white"/>
</svg>
